<svg viewBox="0 0 800 160" fill="none" xmlns="http://www.w3.org/2000/svg">
    <path d="M64.0649 116.994H46.2583C46.2583 115.223 46.2411 99.6666 46.2407 99.4932H64.0649V116.994Z"
        fill="#FBCB4A" />
    <path d="M151.677 116.994H133.872C133.872 115.223 133.854 99.6667 133.854 99.4932H151.677V116.994Z"
        fill="#FBCB4A" />
    <path d="M134.151 70.5029H64.3442C64.3442 68.7159 64.3267 52.8568 64.3267 53.001H134.151V70.5029Z" fill="#FBCB4A" />
    <path fill-rule="evenodd" clip-rule="evenodd"
        d="M166.053 8C168.832 8 170.512 8.00034 172.731 10.2139L186.108 23.4336C188.327 25.6265 188.327 27.8403 188.327 30.0537V129.946C188.327 132.16 188.327 134.373 186.108 136.566L172.731 149.786C170.512 152 168.832 152 166.053 152H133.804V134.496H64.0591L64.0522 152H32.6001C29.8211 152 28.1414 152 25.9224 149.786L12.5454 136.566C10.3267 134.353 10.3267 132.16 10.3267 129.946V30.0537C10.3267 27.8403 10.3267 25.647 12.5454 23.4336L25.9224 10.2139C28.1414 8.00034 29.8211 8 32.6001 8H166.053ZM30.3813 25.626C28.1623 25.626 28.1616 27.8398 28.1616 27.8398V132.16C28.1616 132.16 28.1623 134.374 30.3813 134.374H64.0474C64.0491 132.9 64.0649 118.681 64.0649 116.994H133.872V134.374H168.293C170.512 134.374 170.512 132.16 170.512 132.16V27.8398C170.512 27.8398 170.512 25.6262 168.293 25.626H30.3813Z"
        fill="#FBCB4A" />
    <path fill-rule="evenodd" clip-rule="evenodd"
        d="M279.207 44.96C279.207 44.96 283.046 44.9601 286.886 46.8799L323.367 62.2402C327.207 64.1602 329.126 68 329.126 71.8398V102.561C329.126 104.48 329.126 106.4 327.207 108.32L315.687 119.84C313.767 121.76 311.846 121.76 309.926 121.76H271.527C269.607 121.76 267.687 121.76 265.767 119.84L254.247 108.32C252.327 106.4 252.327 104.48 252.327 102.561C252.327 98.7206 254.246 94.88 258.086 92.96L294.567 77.6006C298.397 75.6857 302.226 75.6807 302.247 75.6807H311.846C313.766 75.6807 313.767 73.7598 313.767 73.7598V62.2402C313.767 60.3202 311.846 60.3203 311.846 60.3203H252.327V44.96H279.207ZM269.607 91.04C267.7 91.04 267.687 92.9337 267.687 92.96V104.48C267.687 104.504 267.699 106.4 269.607 106.4H311.846C313.754 106.4 313.767 104.504 313.767 104.48V92.96C313.767 91.0402 311.846 91.04 311.846 91.04H269.607Z"
        fill="#FBCB4A" />
    <path
        d="M421.236 60.3203H361.716C361.716 60.3203 359.796 60.3202 359.796 62.2402V121.76H344.436V64.1602C344.436 62.2402 344.436 60.3203 346.356 58.4004L357.876 46.8799C359.796 44.9603 361.716 44.96 363.636 44.96H421.236V60.3203Z"
        fill="#FBCB4A" />
    <path
        d="M513.345 60.3203H453.826C451.906 60.3203 451.906 62.2402 451.906 62.2402V104.48C451.906 104.504 451.918 106.4 453.826 106.4H513.345V121.76H455.746C453.826 121.76 451.906 121.76 449.986 119.84L438.465 108.32C436.545 106.4 436.545 104.48 436.545 102.561V64.1602C436.545 62.2402 436.545 60.3203 438.465 58.4004L449.986 46.8799C451.906 44.9603 453.826 44.96 455.746 44.96H513.345V60.3203Z"
        fill="#FBCB4A" />
    <path fill-rule="evenodd" clip-rule="evenodd"
        d="M555.535 44.96C555.535 44.96 559.375 44.9601 563.214 46.8799L599.695 62.2402C603.535 64.1602 605.454 68 605.455 71.8398V102.561C605.455 104.48 605.455 106.4 603.535 108.32L592.015 119.84C590.095 121.76 588.174 121.76 586.254 121.76H547.855C545.935 121.76 544.015 121.76 542.095 119.84L530.575 108.32C528.655 106.4 528.655 104.48 528.655 102.561C528.655 98.7206 530.575 94.88 534.415 92.96L570.895 77.6006C574.724 75.686 578.553 75.6807 578.575 75.6807H588.174C590.094 75.6807 590.095 73.7598 590.095 73.7598V62.2402C590.095 60.3202 588.174 60.3203 588.174 60.3203H528.655V44.96H555.535ZM545.935 91.04C544.028 91.04 544.015 92.9337 544.015 92.96V104.48C544.015 104.504 544.027 106.4 545.935 106.4H588.174C590.082 106.4 590.095 104.504 590.095 104.48V92.96C590.095 91.0402 588.174 91.04 588.174 91.04H545.935Z"
        fill="#FBCB4A" />
    <path fill-rule="evenodd" clip-rule="evenodd"
        d="M697.564 121.76H639.964C638.044 121.76 636.125 121.76 634.205 119.84L622.684 108.32C620.764 106.4 620.764 104.48 620.764 102.561V71.8398C620.764 68 622.684 64.1602 626.524 62.2402L663.004 46.8799C666.833 44.9655 670.663 44.96 670.684 44.96H680.284C680.284 44.96 682.205 44.96 682.205 43.04V14.2402H697.564V121.76ZM638.044 60.3203C636.124 60.3203 636.125 62.2402 636.125 62.2402V104.48C636.125 106.4 638.044 106.4 638.044 106.4H680.284C680.284 106.4 682.204 106.4 682.205 104.48V62.2402C682.205 62.2402 682.204 60.3203 680.284 60.3203H638.044Z"
        fill="#FBCB4A" />
    <path fill-rule="evenodd" clip-rule="evenodd"
        d="M770.473 44.96C772.393 44.96 774.314 44.9599 776.234 46.8799L787.753 58.4004C789.673 60.3204 789.673 61.7602 789.673 64.1602C789.673 68.0001 787.753 71.8397 783.914 73.7598L747.433 89.1201C743.593 91.04 739.753 91.04 739.753 91.04H730.154C728.247 91.04 728.234 92.9337 728.234 92.96V104.48C728.234 106.4 730.154 106.4 730.154 106.4H789.673V121.76H762.793C762.772 121.76 758.943 121.754 755.114 119.84L718.633 104.48C714.793 102.56 712.874 98.7199 712.874 94.8799V64.1602C712.874 62.2402 712.874 60.3203 714.793 58.4004L726.314 46.8799C728.234 44.9603 730.154 44.96 732.074 44.96H770.473ZM730.154 60.3203C728.234 60.3203 728.234 62.2402 728.234 62.2402V73.7598C728.234 75.6798 730.154 75.6807 730.154 75.6807H772.394C774.314 75.6803 774.314 73.7598 774.314 73.7598V62.2402C774.314 62.2402 774.314 60.3206 772.394 60.3203H730.154Z"
        fill="#FBCB4A" />
</svg>