<svg viewBox="0 0 1140 160" fill="none" xmlns="http://www.w3.org/2000/svg">
    <path d="M113.975 0.340129L159.32 45.685L144.001 61.0044L98.6558 15.6595L113.975 0.340129Z"
        fill="#FBCB4A" />
    <path
        d="M98.6558 15.6595L87.3284 4.33385C85.3609 2.34128 82.9041 0.00990527 78.9793 0L56.2366 1.04796C52.3118 1.03806 50.1489 2.8654 48.1916 4.84808L37.3798 15.6599L144.001 122.281L154.813 111.469C156.77 109.487 158.727 107.504 158.717 103.529L158.656 79.6771C158.646 75.7018 156.679 73.7093 154.711 71.7167L144.001 61.0044L128.682 76.3236L83.3366 30.9787L98.6558 15.6595Z"
        fill="#FBCB4A" />
    <path
        d="M45.3449 159.66L0 114.315L15.3203 98.9947L4.60899 88.2833C2.64148 86.2907 0.673981 84.2982 0.663818 80.3229L0.602822 56.4714C0.592665 52.4961 2.55002 50.5134 4.50736 48.5307L15.3192 37.7189L121.94 144.34L111.129 155.152C109.171 157.135 107.008 158.962 103.083 158.952L80.3409 160C76.416 159.99 73.9592 157.659 71.9917 155.666L60.6653 144.34L75.9834 129.022L30.6385 83.6766L15.3203 98.9947L60.6653 144.34L45.3449 159.66Z"
        fill="#FBCB4A" />
    <!-- s (col 1) -->
    <path
        d="M238.68 85.7602C238.68 86.8402 239.52 87.6802 240.6 87.6802H280.92C282.84 87.6802 284.76 87.6802 286.68 89.6002L298.2 101.12C300.12 103.04 300.12 104.48 300.12 106.88V114.56C300.12 116.48 300.12 118.4 298.2 120.32L286.68 131.84C284.76 133.76 282.84 133.76 280.92 133.76H223.32V118.4H282.84C284.76 118.4 284.76 116.48 284.76 116.48V104.96C284.76 103.04 282.84 103.04 282.84 103.04H242.52C240.6 103.04 238.68 103.04 236.76 101.12L225.24 89.6002C223.32 87.6802 223.32 83.8402 223.32 83.8402C223.32 79.8802 225.24 76.1602 229.08 74.2402L265.56 58.8802C269.4 56.9602 273.24 56.9602 273.24 56.9602H300.12V72.3202H240.6C239.52 72.3202 238.68 73.1602 238.68 74.2402V85.7602Z"
        fill="#FBCB4A" />
    <!-- e (col 2) — translated from controller.svg col 9 -->
    <g transform="translate(-645.445, 0)">
        <path
            d="M1037.67 76.1602C1037.67 80.0002 1035.75 83.8402 1031.91 85.7602L995.435 101.12C991.595 103.04 987.755 103.04 987.755 103.04H978.155C976.235 103.04 976.235 104.96 976.235 104.96V116.48C976.235 118.4 978.155 118.4 978.155 118.4H1037.67V133.76H1010.79C1010.79 133.76 1006.95 133.76 1003.11 131.84L966.635 116.48C962.795 114.56 960.875 110.72 960.875 106.88V76.1602C960.875 74.2402 960.875 72.3202 962.795 70.4002L974.315 58.8802C976.235 56.9602 978.155 56.9602 980.075 56.9602H1018.47C1020.39 56.9602 1022.31 56.9602 1024.23 58.8802L1035.76 70.4002C1037.68 72.3202 1037.67 73.7602 1037.67 76.1602ZM1022.32 74.2402C1022.32 74.2402 1022.32 72.3202 1020.4 72.3202H978.155C976.235 72.3202 976.235 74.2402 976.235 74.2402V85.7602C976.235 87.6802 978.155 87.6802 978.155 87.6802H1020.4C1022.32 87.6802 1022.32 85.7602 1022.32 85.7602V74.2402Z"
            fill="#FBCB4A" />
    </g>
    <!-- r (col 3) — translated from controller.svg col 5 -->
    <g transform="translate(-184.899, 0)">
        <path
            d="M592.438 133.76V76.1602C592.438 74.2402 592.438 72.3202 594.358 70.4002L605.878 58.8802C607.798 56.9602 609.718 56.9602 611.638 56.9602H669.237V72.3202H609.717C609.717 72.3202 607.798 72.3202 607.798 74.2402V133.76H592.438Z"
            fill="#FBCB4A" />
    </g>
    <!-- v (col 4) — custom -->
    <path
        d="M499.648 56.9602H515.008L538.048 103.0402L561.088 56.9602H576.448L538.048 133.76L499.648 56.9602Z"
        fill="#FBCB4A" />
    <!-- i — custom: stem + dot, narrow advance width -->
    <path
        d="M591.808 26.2402H607.168V41.6002H591.808V26.2402ZM591.808 56.9602H607.168V133.76H591.808V56.9602Z"
        fill="#FBCB4A" />
    <!-- c — translated from controller.svg col 1 -->
    <g transform="translate(398.528, 0)">
        <path
            d="M241.28 72.3202C239.36 72.3202 239.36 74.2402 239.36 74.2402V116.48C239.36 116.48 239.36 118.4 241.28 118.4H300.8V133.76H243.2C241.28 133.76 239.36 133.76 237.44 131.84L225.92 120.32C224 118.4 224 116.48 224 114.56V76.1602C224 74.2402 224 72.3202 225.92 70.4002L237.44 58.8802C239.36 56.9602 241.28 56.9602 243.2 56.9602H300.8V72.3202H241.28Z"
            fill="#FBCB4A" />
    </g>
    <!-- e — translated from controller.svg col 9 -->
    <g transform="translate(-246.237, 0)">
        <path
            d="M1037.67 76.1602C1037.67 80.0002 1035.75 83.8402 1031.91 85.7602L995.435 101.12C991.595 103.04 987.755 103.04 987.755 103.04H978.155C976.235 103.04 976.235 104.96 976.235 104.96V116.48C976.235 118.4 978.155 118.4 978.155 118.4H1037.67V133.76H1010.79C1010.79 133.76 1006.95 133.76 1003.11 131.84L966.635 116.48C962.795 114.56 960.875 110.72 960.875 106.88V76.1602C960.875 74.2402 960.875 72.3202 962.795 70.4002L974.315 58.8802C976.235 56.9602 978.155 56.9602 980.075 56.9602H1018.47C1020.39 56.9602 1022.31 56.9602 1024.23 58.8802L1035.76 70.4002C1037.68 72.3202 1037.67 73.7602 1037.67 76.1602ZM1022.32 74.2402C1022.32 74.2402 1022.32 72.3202 1020.4 72.3202H978.155C976.235 72.3202 976.235 74.2402 976.235 74.2402V85.7602C976.235 87.6802 978.155 87.6802 978.155 87.6802H1020.4C1022.32 87.6802 1022.32 85.7602 1022.32 85.7602V74.2402Z"
            fill="#FBCB4A" />
    </g>
    <!-- s — translated from col 1 -->
    <g transform="translate(583.428, 0)">
        <path
            d="M238.68 85.7602C238.68 86.8402 239.52 87.6802 240.6 87.6802H280.92C282.84 87.6802 284.76 87.6802 286.68 89.6002L298.2 101.12C300.12 103.04 300.12 104.48 300.12 106.88V114.56C300.12 116.48 300.12 118.4 298.2 120.32L286.68 131.84C284.76 133.76 282.84 133.76 280.92 133.76H223.32V118.4H282.84C284.76 118.4 284.76 116.48 284.76 116.48V104.96C284.76 103.04 282.84 103.04 282.84 103.04H242.52C240.6 103.04 238.68 103.04 236.76 101.12L225.24 89.6002C223.32 87.6802 223.32 83.8402 223.32 83.8402C223.32 79.8802 225.24 76.1602 229.08 74.2402L265.56 58.8802C269.4 56.9602 273.24 56.9602 273.24 56.9602H300.12V72.3202H240.6C239.52 72.3202 238.68 73.1602 238.68 74.2402V85.7602Z"
            fill="#FBCB4A" />
    </g>
</svg>
